HIERARCHY
ROOT Hips
{
	OFFSET 0.000000 35.082581 0.000000
	CHANNELS 6 Xposition Yposition Zposition Xrotation Yrotation Zrotation 
	JOINT Spine
	{
		OFFSET 0.000000 6.876099 0.125700
		CHANNELS 3 Xrotation Yrotation Zrotation
		JOINT Spine1
		{
			OFFSET 0.000000 5.730043 0.104720
			CHANNELS 3 Xrotation Yrotation Zrotation
			JOINT Spine1_split
			{
				OFFSET 0.000000 5.730043 0.104720
				CHANNELS 3 Xrotation Yrotation Zrotation
				JOINT Spine2
				{
					OFFSET 0.000000 5.730043 0.104720
					CHANNELS 3 Xrotation Yrotation Zrotation
					JOINT Neck
					{
						OFFSET 0.000000 10.314075 0.188496
						CHANNELS 3 Xrotation Yrotation Zrotation
						JOINT Head
						{
							OFFSET 0.000000 7.643700 -2.377400
							CHANNELS 3 Xrotation Yrotation Zrotation
							JOINT HeadTop_End
							{
								OFFSET 0.000000 43.788605 -13.619600
								CHANNELS 3 Xrotation Yrotation Zrotation
								End Site
								{
									OFFSET 0.000000 0.000000 0.000000
								}
							}
						}
					}
					JOINT LeftShoulder
					{
						OFFSET 2.196100 4.412489 0.087492
						CHANNELS 3 Xrotation Yrotation Zrotation
						JOINT LeftShoulder_split
						{
							OFFSET 2.196100 4.412489 0.087492
							CHANNELS 3 Xrotation Yrotation Zrotation
							JOINT LeftArm
							{
								OFFSET 8.771219 -2.981674 -0.026999
								CHANNELS 3 Xrotation Yrotation Zrotation
								JOINT LeftForeArm
								{
									OFFSET 8.512804 0.000000 -0.000000
									CHANNELS 3 Xrotation Yrotation Zrotation
									JOINT LeftHand
									{
										OFFSET 18.484802 0.000000 -0.000000
										CHANNELS 3 Xrotation Yrotation Zrotation
										JOINT LeftHandThumb1
										{
											OFFSET 2.499420 -1.158070 2.653252
											CHANNELS 3 Xrotation Yrotation Zrotation
											JOINT LeftHandThumb2
											{
												OFFSET 2.370079 -1.368366 1.368366
												CHANNELS 3 Xrotation Yrotation Zrotation
												JOINT LeftHandThumb3
												{
													OFFSET 2.676727 -1.545410 1.545409
													CHANNELS 3 Xrotation Yrotation Zrotation
													JOINT LeftHandThumb4
													{
														OFFSET 1.692226 -0.977005 0.977007
														CHANNELS 3 Xrotation Yrotation Zrotation
														End Site
														{
															OFFSET 0.000000 0.000000 0.000000
														}
													}
												}
											}
										}
										JOINT LeftHandIndex1
										{
											OFFSET 7.924831 -0.457527 2.345128
											CHANNELS 3 Xrotation Yrotation Zrotation
											JOINT LeftHandIndex2
											{
												OFFSET 3.643303 0.000000 0.000000
												CHANNELS 3 Xrotation Yrotation Zrotation
												JOINT LeftHandIndex3
												{
													OFFSET 3.810799 0.000000 0.000000
													CHANNELS 3 Xrotation Yrotation Zrotation
													JOINT LeftHandIndex4
													{
														OFFSET 2.403702 0.000000 0.000000
														CHANNELS 3 Xrotation Yrotation Zrotation
														End Site
														{
															OFFSET 0.000000 0.000000 0.000000
														}
													}
												}
											}
										}
										JOINT LeftHandMiddle1
										{
											OFFSET 8.563995 0.000000 -0.000000
											CHANNELS 3 Xrotation Yrotation Zrotation
											JOINT LeftHandMiddle2
											{
												OFFSET 3.861618 0.000000 0.000000
												CHANNELS 3 Xrotation Yrotation Zrotation
												JOINT LeftHandMiddle3
												{
													OFFSET 3.701603 0.000000 0.000000
													CHANNELS 3 Xrotation Yrotation Zrotation
													JOINT LeftHandMiddle4
													{
														OFFSET 2.322544 0.000000 0.000000
														CHANNELS 3 Xrotation Yrotation Zrotation
														End Site
														{
															OFFSET 0.000000 0.000000 0.000000
														}
													}
												}
											}
										}
										JOINT LeftHandRing1
										{
											OFFSET 8.426460 -0.424637 -3.286992
											CHANNELS 3 Xrotation Yrotation Zrotation
											JOINT LeftHandRing2
											{
												OFFSET 3.126408 0.000000 0.000000
												CHANNELS 3 Xrotation Yrotation Zrotation
												JOINT LeftHandRing3
												{
													OFFSET 3.085026 0.000000 0.000000
													CHANNELS 3 Xrotation Yrotation Zrotation
													JOINT LeftHandRing4
													{
														OFFSET 1.644005 0.000000 0.000000
														CHANNELS 3 Xrotation Yrotation Zrotation
														End Site
														{
															OFFSET 0.000000 0.000000 0.000000
														}
													}
												}
											}
										}
									}
								}
							}
						}
					}
					JOINT RightShoulder
					{
						OFFSET -2.196100 4.412496 0.070690
						CHANNELS 3 Xrotation Yrotation Zrotation
						JOINT RightShoulder_split
						{
							OFFSET -2.196100 4.412496 0.070690
							CHANNELS 3 Xrotation Yrotation Zrotation
							JOINT RightArm
							{
								OFFSET -8.771282 -2.981682 -0.094208
								CHANNELS 3 Xrotation Yrotation Zrotation
								JOINT RightForeArm
								{
									OFFSET -8.494598 0.000000 0.000000
									CHANNELS 3 Xrotation Yrotation Zrotation
									JOINT RightHand
									{
										OFFSET -18.483803 0.000000 0.000001
										CHANNELS 3 Xrotation Yrotation Zrotation
										JOINT RightHandThumb1
										{
											OFFSET -2.527351 -1.008072 2.575253
											CHANNELS 3 Xrotation Yrotation Zrotation
											JOINT RightHandThumb2
											{
												OFFSET -2.321518 -1.340328 1.340329
												CHANNELS 3 Xrotation Yrotation Zrotation
												JOINT RightHandThumb3
												{
													OFFSET -2.657753 -1.534454 1.534455
													CHANNELS 3 Xrotation Yrotation Zrotation
													JOINT RightHandThumb4
													{
														OFFSET -1.807510 -1.043568 1.043567
														CHANNELS 3 Xrotation Yrotation Zrotation
														End Site
														{
															OFFSET 0.000000 0.000000 0.000000
														}
													}
												}
											}
										}
										JOINT RightHandIndex1
										{
											OFFSET -8.811420 0.015533 2.887987
											CHANNELS 3 Xrotation Yrotation Zrotation
											JOINT RightHandIndex2
											{
												OFFSET -3.537502 0.000000 0.000000
												CHANNELS 3 Xrotation Yrotation Zrotation
												JOINT RightHandIndex3
												{
													OFFSET -3.356201 0.000000 0.000000
													CHANNELS 3 Xrotation Yrotation Zrotation
													JOINT RightHandIndex4
													{
														OFFSET -1.933098 0.000000 0.000000
														CHANNELS 3 Xrotation Yrotation Zrotation
														End Site
														{
															OFFSET 0.000000 0.000000 0.000000
														}
													}
												}
											}
										}
										JOINT RightHandMiddle1
										{
											OFFSET -8.178135 0.000000 0.000000
											CHANNELS 3 Xrotation Yrotation Zrotation
											JOINT RightHandMiddle2
											{
												OFFSET -3.901302 0.000000 0.000000
												CHANNELS 3 Xrotation Yrotation Zrotation
												JOINT RightHandMiddle3
												{
													OFFSET -3.909599 0.000000 0.000000
													CHANNELS 3 Xrotation Yrotation Zrotation
													JOINT RightHandMiddle4
													{
														OFFSET -2.376003 0.000000 0.000000
														CHANNELS 3 Xrotation Yrotation Zrotation
														End Site
														{
															OFFSET 0.000000 0.000000 0.000000
														}
													}
												}
											}
										}
										JOINT RightHandRing1
										{
											OFFSET -7.559013 0.014137 -2.865403
											CHANNELS 3 Xrotation Yrotation Zrotation
											JOINT RightHandRing2
											{
												OFFSET -3.449306 0.000000 0.000000
												CHANNELS 3 Xrotation Yrotation Zrotation
												JOINT RightHandRing3
												{
													OFFSET -3.362106 0.000000 0.000000
													CHANNELS 3 Xrotation Yrotation Zrotation
													JOINT RightHandRing4
													{
														OFFSET -2.076401 0.000000 0.000000
														CHANNELS 3 Xrotation Yrotation Zrotation
														End Site
														{
															OFFSET 0.000000 0.000000 0.000000
														}
													}
												}
											}
										}
									}
								}
							}
						}
					}
				}
			}
		}
	}
	JOINT LeftUpLeg
	{
		OFFSET 10.205400 -3.823500 0.155100
		CHANNELS 3 Xrotation Yrotation Zrotation
		JOINT LeftLeg
		{
			OFFSET 0.708757 -12.982077 0.567790
			CHANNELS 3 Xrotation Yrotation Zrotation
			JOINT LeftFoot
			{
				OFFSET -0.708756 -10.717838 -2.184338
				CHANNELS 3 Xrotation Yrotation Zrotation
				JOINT LeftToeBase
				{
					OFFSET 0.108149 -7.191104 7.560241
					CHANNELS 3 Xrotation Yrotation Zrotation
					JOINT LeftToe_End
					{
						OFFSET 0.070230 0.081724 4.490308
						CHANNELS 3 Xrotation Yrotation Zrotation
						End Site
						{
							OFFSET 0.000000 0.000000 0.000000
						}
					}
				}
			}
		}
	}
	JOINT RightUpLeg
	{
		OFFSET -10.205400 -3.823500 0.005500
		CHANNELS 3 Xrotation Yrotation Zrotation
		JOINT RightLeg
		{
			OFFSET -0.708756 -12.982134 0.610632
			CHANNELS 3 Xrotation Yrotation Zrotation
			JOINT RightFoot
			{
				OFFSET 0.708754 -10.717769 -1.945823
				CHANNELS 3 Xrotation Yrotation Zrotation
				JOINT RightToeBase
				{
					OFFSET -0.108140 -7.191069 7.372968
					CHANNELS 3 Xrotation Yrotation Zrotation
					JOINT RightToe_End
					{
						OFFSET -0.070227 0.081735 4.479403
						CHANNELS 3 Xrotation Yrotation Zrotation
						End Site
						{
							OFFSET 0.000000 0.000000 0.000000
						}
					}
				}
			}
		}
	}
}
MOTION
Frames: 6
Frame Time: 0.016667
-0.025147 52.812027 -0.946594 -1.013294 1.590341 0.859952 -2.804148 -0.022958 -0.539900 -5.611656 -0.102273 -0.620860 0.000000 0.000000 0.000000 -5.611653 -0.102273 -0.620860 -27.780268 0.884575 -2.478857 -5.939967 -1.809258 2.604353 0.000003 -0.000000 0.000000 7.248325 6.365629 32.385168 0.000000 0.000000 0.000000 -52.895324 -36.819914 5.857835 -23.466838 -23.506880 1.478714 -3.826422 -2.003299 0.833591 -23.505092 8.724629 4.055165 -11.818399 8.158625 13.633643 0.000006 -0.000002 -0.000020 0.000001 0.000002 -0.000000 -0.793913 -9.944878 -73.989855 -8.742876 -2.825256 -82.562350 -0.000003 0.000001 -0.000010 0.000000 0.000000 -0.000001 -7.057145 -4.106571 -72.543992 -5.071195 -4.491850 -69.918447 0.000001 0.000005 -0.000010 -0.000001 0.000000 0.000002 -10.868866 6.242578 -70.785629 -0.409562 -6.819472 -77.462466 -0.000001 0.000011 -0.000008 0.000001 0.000000 0.000001 2.277538 -6.651279 -36.122586 0.000000 0.000000 0.000000 -64.303854 35.763875 7.685047 -24.527667 16.757150 0.686880 10.834989 10.092827 2.136008 -17.327328 6.468929 -26.575931 3.045284 -20.332867 1.155721 0.000000 0.000023 0.000001 0.000003 0.000000 -0.000000 -8.189440 4.700917 83.344304 -5.502014 0.854513 81.248946 0.000005 -0.000001 0.000001 0.000000 0.000000 0.000000 -13.105694 1.845244 86.654938 -5.617170 1.089118 83.764586 0.000003 -0.000002 -0.000002 0.000001 -0.000000 -0.000000 -13.657541 -7.092640 77.657844 -0.194374 7.087305 77.421335 0.000003 -0.000000 0.000002 -0.000001 -0.000001 0.000001 -25.901365 9.416885 1.898457 46.626522 14.711171 1.446610 31.097370 1.426705 6.523380 -0.000002 0.000002 -0.000000 0.000001 0.000002 -0.000002 -0.513958 -7.885817 -2.604612 23.592976 -18.665165 1.661825 40.424939 0.494900 3.052704 0.000005 -0.000000 -0.000007 -0.000003 0.000001 -0.000003 
0.045191 52.899086 -1.203229 -0.860206 1.431450 0.843548 -2.725384 0.099621 -0.465483 -5.454584 0.132120 -0.464096 0.000000 0.000000 0.000000 -5.454581 0.132120 -0.464096 -28.934867 1.054856 -3.177760 -5.198138 -1.919965 3.212582 -0.000000 0.000000 0.000000 7.446507 6.603383 32.450331 0.000000 0.000000 0.000000 -54.448923 -35.183766 3.471662 -24.716320 -26.798662 2.385708 -2.089428 -0.267406 0.161414 -23.495545 8.735366 4.099155 -11.816017 8.165968 13.633315 0.000007 0.000003 -0.000017 -0.000003 0.000002 -0.000000 -0.798148 -9.946868 -74.031396 -8.750740 -2.825433 -82.619771 -0.000003 0.000001 -0.000006 0.000000 0.000000 0.000001 -7.063515 -4.107369 -72.604310 -5.077531 -4.493763 -69.977310 0.000001 0.000006 -0.000008 0.000000 0.000000 0.000002 -10.882248 6.239443 -70.819035 -0.412555 -6.821495 -77.522852 -0.000003 0.000010 -0.000013 0.000001 -0.000000 0.000001 2.388913 -6.364262 -35.754579 0.000000 0.000000 0.000000 -64.005006 34.598211 7.322058 -24.670418 19.891078 0.003025 11.125938 8.673215 4.184496 -17.283814 6.418232 -26.304653 3.064550 -20.360343 1.166127 0.000002 0.000026 0.000001 0.000000 -0.000005 -0.000000 -8.185385 4.699045 83.315768 -5.510749 0.853764 81.338134 0.000005 -0.000001 0.000001 0.000000 0.000000 -0.000000 -13.046155 1.831959 86.514366 -5.595991 1.090007 83.530522 0.000002 -0.000001 -0.000002 -0.000000 0.000000 0.000000 -13.616062 -7.089700 77.376672 -0.170984 7.073171 77.042416 0.000005 -0.000001 0.000001 -0.000001 0.000000 0.000000 -27.910707 9.258646 1.564779 47.821453 10.786522 1.307708 31.733366 1.350832 3.561166 -0.130915 -0.066211 0.133195 -0.000002 -0.000001 0.000002 -1.273116 -7.940540 -3.737570 30.757045 -17.307978 3.000656 34.523881 0.655973 5.743118 0.104435 1.803767 0.387946 0.000000 0.000002 0.000000 
0.130123 53.016926 -1.582859 -0.600344 0.940861 0.778644 -2.637383 0.299321 -0.355001 -5.279451 0.526126 -0.270102 0.000000 0.000000 0.000000 -5.279452 0.526127 -0.270102 -29.410518 0.905853 -3.426295 -5.302067 -1.820671 3.677569 0.000002 0.000000 -0.000000 7.870912 7.117309 32.582284 0.000000 0.000000 0.000000 -57.915892 -34.418478 -0.704292 -26.183243 -29.980101 4.243786 1.291420 1.133877 -1.465715 -23.490595 8.740855 4.122846 -11.815333 8.169566 13.633537 0.000004 0.000003 -0.000020 -0.000002 -0.000000 -0.000004 -0.800605 -9.948100 -74.055718 -8.755222 -2.825502 -82.652645 -0.000003 0.000001 -0.000006 0.000000 -0.000000 -0.000002 -7.067272 -4.108007 -72.638044 -5.081092 -4.494808 -70.010580 0.000001 0.000005 -0.000007 0.000000 -0.000001 -0.000004 -10.889700 6.237618 -70.837825 -0.414245 -6.822632 -77.556743 -0.000003 0.000012 -0.000006 -0.000001 -0.000000 -0.000000 2.490090 -6.094535 -35.392777 0.000000 0.000000 0.000000 -63.972426 33.630707 7.079535 -24.776926 22.588505 -0.847461 11.676237 7.518028 6.413620 -17.301692 6.438997 -26.415039 3.056117 -20.348435 1.161302 0.000004 0.000025 -0.000000 0.000001 -0.000002 -0.000002 -8.187157 4.700036 83.323889 -5.507080 0.854105 81.300309 0.000005 -0.000001 0.000000 -0.000001 0.000000 -0.000000 -13.070165 1.838104 86.568256 -5.604626 1.089753 83.625414 0.000002 -0.000002 -0.000002 0.000000 -0.000000 -0.000000 -13.632573 -7.090494 77.490142 -0.180621 7.078971 77.198466 0.000003 0.000000 0.000001 0.000001 0.000001 -0.000000 -30.654398 9.131739 0.966764 49.646944 5.831662 1.105241 31.986787 1.680554 1.321423 -0.133653 -0.247613 0.149180 -0.000004 0.000001 -0.000002 -2.111792 -8.010856 -4.887218 38.392066 -13.098208 4.321544 26.835759 0.512661 10.209121 0.675259 2.489655 1.117346 0.000001 0.000001 -0.000002 
0.213437 53.130638 -2.058598 -0.255730 0.111652 0.698295 -2.545138 0.562782 -0.241055 -5.097276 1.039579 -0.044115 0.000000 0.000000 0.000000 -5.097278 1.039579 -0.044115 -29.440919 0.570002 -3.397075 -5.910961 -1.569222 4.078035 -0.000000 0.000000 -0.000000 8.458172 7.825083 32.740693 0.000000 0.000000 0.000000 -62.473876 -34.058810 -5.800700 -27.569541 -32.988878 6.946097 5.686069 2.103965 -3.638411 -23.494007 8.736963 4.107976 -11.816703 8.166773 13.634036 0.000003 -0.000002 -0.000020 -0.000000 -0.000001 -0.000002 -0.799359 -9.947594 -74.043595 -8.752825 -2.825437 -82.635119 -0.000003 0.000001 -0.000007 0.000000 0.000000 0.000001 -7.065403 -4.107942 -72.618844 -5.079121 -4.494243 -69.992165 0.000002 0.000005 -0.000008 -0.000001 -0.000000 -0.000000 -10.885414 6.238512 -70.827354 -0.413294 -6.821986 -77.537619 -0.000001 0.000011 -0.000007 -0.000001 -0.000000 0.000002 2.587526 -5.828013 -35.023905 0.000000 0.000000 0.000000 -64.095274 32.796314 6.908442 -24.852734 25.024792 -1.814138 12.403233 6.558987 8.612012 -17.355024 6.501281 -26.748628 3.032320 -20.314610 1.148212 -0.000000 0.000023 0.000001 0.000001 0.000002 0.000001 -8.192467 4.702513 83.357985 -5.496457 0.854981 81.191852 0.000004 -0.000001 0.000001 -0.000001 -0.000000 -0.000000 -13.143535 1.854597 86.740117 -5.630800 1.088598 83.913860 0.000002 -0.000001 -0.000002 -0.000000 0.000000 -0.000001 -13.683652 -7.094123 77.835927 -0.209476 7.096350 77.666354 0.000002 -0.000001 0.000000 -0.000001 -0.000001 -0.000000 -33.812729 9.053481 0.177704 51.801097 0.445383 0.844647 31.880007 2.237152 -0.590713 -0.193800 -0.451737 0.151174 -0.000000 -0.000000 -0.000000 -2.136441 -8.114596 -5.982825 44.265271 -7.475425 5.378409 19.189983 0.099661 15.208016 1.065550 2.221623 1.522410 0.000002 0.000001 0.000000 
0.290881 53.233158 -2.659262 0.191902 -1.222016 0.612826 -2.449024 0.908694 -0.136466 -4.910725 1.697763 0.223636 0.000000 0.000000 0.000000 -4.910728 1.697762 0.223636 -29.004316 0.063109 -3.103742 -6.983468 -1.148913 4.443619 0.000000 0.000000 0.000000 9.233547 8.752134 32.902316 0.000000 0.000000 0.000000 -68.084746 -34.014154 -11.684621 -28.691900 -35.708478 10.607564 10.959877 2.437469 -6.258236 -23.510170 8.718798 4.033523 -11.820754 8.154469 13.634645 0.000007 0.000000 -0.000019 -0.000001 -0.000003 -0.000002 -0.792232 -9.944247 -73.973496 -8.739576 -2.825150 -82.538075 -0.000002 0.000001 -0.000007 0.000000 -0.000000 -0.000002 -7.054659 -4.106598 -72.516829 -5.068420 -4.491054 -69.892622 0.000002 0.000005 -0.000007 0.000001 -0.000000 0.000002 -10.862815 6.243822 -70.770868 -0.408214 -6.818571 -77.435501 -0.000002 0.000011 -0.000009 -0.000000 0.000000 0.000002 2.685328 -5.556062 -34.635346 0.000000 0.000000 0.000000 -64.359616 32.111567 6.818253 -24.909990 27.211861 -2.862124 13.262097 5.834234 10.562538 -17.425103 6.583362 -27.191594 3.001613 -20.270864 1.131622 0.000003 0.000025 -0.000000 -0.000001 -0.000000 -0.000000 -8.199337 4.705523 83.408105 -5.482593 0.856125 81.050180 0.000006 -0.000001 0.000001 -0.000000 0.000000 -0.000000 -13.241502 1.874924 86.972719 -5.665529 1.086673 84.297300 0.000000 -0.000002 -0.000001 -0.000001 0.000000 -0.000000 -13.752367 -7.100257 78.296146 -0.247614 7.119294 78.285204 0.000003 -0.000000 0.000000 0.000000 0.000000 0.000000 -37.289592 9.041547 -0.797008 54.257356 -5.127830 0.514272 31.140332 3.052748 -2.200290 -0.310171 -0.649674 0.109726 -0.000005 -0.000001 -0.000000 -1.277778 -8.258263 -7.001007 47.872338 -1.384195 6.138734 12.456844 -0.475134 19.842695 0.956117 1.256672 1.263052 -0.000003 0.000002 0.000000 
0.372867 53.335609 -3.384129 0.740867 -3.203105 0.524310 -2.349596 1.342115 -0.039874 -4.723189 2.508977 0.535482 0.000000 0.000000 0.000000 -4.723183 2.508976 0.535482 -28.182569 -0.549758 -2.633665 -8.334106 -0.585414 4.821732 -0.000001 -0.000000 -0.000000 10.189777 9.888214 33.023890 0.000000 0.000000 0.000000 -74.312376 -34.065688 -17.866409 -29.379598 -38.014770 15.101019 16.606224 2.069588 -9.099672 -23.535445 8.690419 3.915051 -11.826170 8.135515 13.634944 0.000004 0.000001 -0.000020 -0.000004 -0.000000 -0.000004 -0.780531 -9.938613 -73.858517 -8.718115 -2.824683 -82.380346 -0.000003 0.000001 -0.000009 -0.000000 -0.000000 0.000002 -7.036953 -4.104050 -72.352330 -5.051185 -4.485878 -69.731546 0.000001 0.000005 -0.000011 -0.000000 0.000001 0.000001 -10.826451 6.252582 -70.679535 -0.400031 -6.813036 -77.270586 -0.000001 0.000011 -0.000007 -0.000001 0.000000 0.000003 2.789748 -5.266856 -34.220252 0.000000 0.000000 0.000000 -64.727872 31.588279 6.818399 -24.982537 29.172803 -3.904963 14.151458 5.352884 11.898550 -17.451087 6.613870 -27.356031 2.990271 -20.254465 1.125934 0.000002 0.000027 -0.000002 0.000002 0.000000 -0.000000 -8.201286 4.706305 83.427694 -5.477086 0.856543 80.994057 0.000005 -0.000001 0.000001 -0.000000 0.000000 0.000000 -13.277653 1.881920 87.060187 -5.678245 1.085858 84.437995 0.000004 -0.000002 -0.000002 0.000000 -0.000000 -0.000001 -13.778027 -7.103070 78.466251 -0.261531 7.127579 78.510832 0.000003 -0.000000 0.000000 -0.000000 -0.000000 -0.000001 -40.758536 9.082052 -1.875257 56.730896 -10.423594 0.100799 29.562828 4.117785 -3.536962 -0.484657 -0.803841 0.051653 0.000003 -0.000001 0.000000 0.222617 -8.438193 -7.874207 49.121915 3.845425 6.546910 7.861529 -1.061609 23.237215 0.207819 0.368598 0.642842 0.000001 0.000003 -0.000001 
